<svg width="24" height="24" viewBox="0 0 24 24" fill="none" xmlns="http://www.w3.org/2000/svg">
<path d="M4.46377 17.3262C5.65942 16.7827 6.96377 16.4204 8.34058 16.1668C8.08696 15.0074 7.94203 13.8117 7.9058 12.5798H2C2.1087 14.4639 2.72464 16.1668 3.73913 17.6161L4.46377 17.3262Z" fill="#666666"/>
<path d="M4.93478 18.4854L4.5 18.6666C6.0942 20.4781 8.34058 21.6738 10.8406 21.9637L10.7319 21.8187C9.82609 20.5868 9.10145 19.0651 8.63043 17.3984C7.28985 17.6158 6.05797 17.9781 4.93478 18.4854Z" fill="#666666"/>
<path d="M8.5943 6.63768C9.02908 5.07971 9.68126 3.63043 10.5146 2.43478L10.8407 2C8.30445 2.28986 6.0943 3.52174 4.46387 5.33333L4.86242 5.51449C6.02184 6.02174 7.28995 6.42029 8.5943 6.63768Z" fill="#666666"/>
<path d="M8.30435 7.83329C6.8913 7.57966 5.58696 7.18111 4.35507 6.63763L3.7029 6.34778C2.72464 7.79705 2.1087 9.53618 2 11.384H7.9058C7.94203 10.1521 8.05072 8.95647 8.30435 7.83329Z" fill="#666666"/>
<path d="M19.3913 18.7753L19.1377 18.5942C17.9058 18.0145 16.529 17.6159 15.0798 17.3623C14.6087 19.029 13.8841 20.5507 12.9783 21.7826L12.8334 22C15.4421 21.7826 17.7247 20.5869 19.3913 18.7753Z" fill="#666666"/>
<path d="M19.174 5.4058L19.4638 5.26087C17.7972 3.41304 15.4783 2.21739 12.8696 2L13.1957 2.47101C14.029 3.66667 14.645 5.11594 15.116 6.67391C16.5653 6.42029 17.9421 5.98551 19.174 5.4058Z" fill="#666666"/>
<path d="M9.10168 11.3477H14.5727C14.5365 10.1883 14.3915 9.06513 14.1741 8.0144C13.4133 8.08687 12.6524 8.15934 11.8915 8.15934C11.0944 8.15934 10.2973 8.1231 9.53648 8.0144C9.28285 9.06513 9.13792 10.2245 9.10168 11.3477Z" fill="#666666"/>
<path d="M20.2247 6.20288L19.7175 6.49274C18.4131 7.10868 16.9276 7.57969 15.4059 7.83332C15.6595 8.9565 15.7682 10.1522 15.8044 11.3478H22.0363C21.9276 9.46375 21.2754 7.68839 20.2247 6.20288Z" fill="#666666"/>
<path d="M19.7537 17.5436L20.1885 17.8335C21.2754 16.348 21.9276 14.5364 22.0363 12.6161H15.8044C15.7682 13.848 15.6233 15.0436 15.3696 16.203C16.9276 16.4567 18.3769 16.9277 19.6812 17.5436H19.7537Z" fill="#666666"/>
<path d="M11.8552 2.6886L11.4928 3.15961C10.7682 4.17411 10.2247 5.44222 9.82617 6.81903C10.5146 6.8915 11.203 6.92773 11.8914 6.92773C12.5798 6.92773 13.232 6.8915 13.8841 6.81903C13.4856 5.44222 12.9059 4.17411 12.1812 3.12338L11.8552 2.6886Z" fill="#666666"/>
<path d="M11.8552 21.2753L12.0001 21.0941C12.7972 20.0072 13.4132 18.6666 13.8479 17.2173C13.1958 17.1449 12.5436 17.1086 11.8914 17.1086C11.203 17.1086 10.5146 17.1449 9.86243 17.2173C10.2972 18.6666 10.9132 20.0072 11.7103 21.0579L11.8552 21.2753Z" fill="#666666"/>
<path d="M11.8915 15.877C12.6524 15.877 13.4133 15.9132 14.1741 16.0219C14.4278 14.9349 14.5365 13.7755 14.5727 12.6161H9.10168C9.13792 13.8117 9.28284 14.9349 9.50023 16.0219C10.2973 15.9132 11.0944 15.877 11.8915 15.877Z" fill="#666666"/>
</svg>
